<?xml version="1.0" standalone="no"?>
<!DOCTYPE svg PUBLIC "-//W3C//DTD SVG 20010904//EN"
 "http://www.w3.org/TR/2001/REC-SVG-20010904/DTD/svg10.dtd">
<svg version="1.0" xmlns="http://www.w3.org/2000/svg"
 width="390.000000pt" height="390.000000pt" viewBox="0 0 390.000000 390.000000"
 preserveAspectRatio="xMidYMid meet">
<metadata>
Created by potrace 1.14, written by Peter Selinger 2001-2017
</metadata>
<g transform="translate(0.000000,390.000000) scale(0.100000,-0.100000)"
fill="#000000" stroke="none">
<path d="M873 3888 c-304 -33 -559 -229 -662 -508 -49 -132 -48 -105 -46
-1446 1 -1389 -2 -1312 64 -1458 180 -397 657 -579 1043 -397 68 32 91 45 368
206 102 59 210 121 240 138 30 16 87 49 125 72 39 23 162 95 275 160 113 65
264 152 335 193 72 41 146 84 165 95 19 10 73 42 120 70 47 27 110 64 140 80
30 17 99 57 153 89 55 32 101 58 103 58 18 0 161 105 210 154 330 331 297 894
-70 1175 -28 22 -123 81 -211 132 -88 50 -203 117 -255 147 -226 131 -418 241
-450 259 -19 11 -75 44 -125 73 -49 29 -106 62 -125 72 -19 11 -55 32 -80 46
-25 14 -108 62 -185 107 -77 45 -160 93 -185 107 -25 14 -143 82 -263 152
-263 152 -294 168 -377 194 -104 32 -203 42 -307 30z m499 -1218 c4 -5 143
-164 163 -186 14 -16 122 -139 174 -199 24 -27 50 -56 59 -63 20 -15 51 -6 73
22 9 11 25 30 35 42 11 12 45 50 76 85 31 35 65 73 75 85 68 79 152 173 173
195 l26 26 207 0 c197 0 209 -1 222 -20 16 -22 10 -37 -27 -78 -24 -27 -134
-152 -178 -203 -14 -16 -30 -34 -36 -40 -5 -6 -43 -49 -84 -96 -41 -47 -77
-87 -80 -90 -3 -3 -50 -57 -104 -120 -54 -63 -111 -127 -125 -141 -14 -14 -42
-45 -61 -69 -71 -88 -153 -170 -169 -170 -9 0 -39 26 -66 57 -28 32 -70 80
-95 108 -57 65 -154 175 -214 243 -25 29 -47 49 -47 45 -1 -4 -3 -30 -4 -58
-2 -46 -7 -86 -21 -185 -31 -210 -150 -443 -298 -578 -60 -54 -107 -69 -120
-36 -11 28 -7 1409 4 1420 11 11 435 14 442 4z m1203 -1077 c56 -39 94 -116
88 -179 -14 -177 -235 -252 -351 -120 -32 37 -52 90 -52 141 0 30 28 98 52
125 64 74 182 89 263 33z"/>
</g>
</svg>
